<?xml version="1.0" encoding="iso-8859-1"?>
<!-- Generator: Adobe Illustrator 18.0.0, SVG Export Plug-In . SVG Version: 6.00 Build 0)  -->
<!DOCTYPE svg PUBLIC "-//W3C//DTD SVG 1.1//EN" "http://www.w3.org/Graphics/SVG/1.1/DTD/svg11.dtd">
<svg version="1.1" id="Capa_1" xmlns="http://www.w3.org/2000/svg" xmlns:xlink="http://www.w3.org/1999/xlink" x="0px" y="0px"
	 viewBox="0 0 488.634 488.634" style="enable-background:new 0 0 488.634 488.634;" xml:space="preserve">
<path style="fill:#fafafa;"
d="M457.067,212.754H174.899c-0.379-47.906-39.436-86.772-87.435-86.772C39.235,125.982,0,165.219,0,213.447v61.732
	c0,48.229,39.235,87.473,87.464,87.473c47.99,0,87.048-38.865,87.435-86.764h158.536v26.966c0,17.433,14.134,31.567,31.567,31.567
	c9.48,0,17.887-4.27,23.675-10.889c5.788,6.619,14.196,10.889,23.675,10.889c17.433,0,31.567-14.135,31.567-31.567v-26.966h13.148
	c17.433,0,31.567-14.134,31.567-31.567C488.634,226.888,474.5,212.754,457.067,212.754z M111.803,275.179
	c0,13.418-10.921,24.339-24.338,24.339s-24.33-10.921-24.33-24.339v-61.732c0-13.417,10.913-24.33,24.33-24.33
	s24.338,10.913,24.338,24.33V275.179z"/>
</svg>
