<?xml version="1.0" encoding="iso-8859-1"?>
<svg version="1.1" id="rubbery" xmlns="http://www.w3.org/2000/svg" xmlns:xlink="http://www.w3.org/1999/xlink" viewBox="0 0 600 380">
<defs><style>.cls-1{fill:#545c65;}.cls-2{mask:url(#mask);}</style><mask id="mask" x="-4057.743" y="-863.334" width="531.932" height="465.275" maskUnits="userSpaceOnUse"/></defs><title>feral_book_rubbery</title><path class="cls-1" d="M-482.6-542.57c-0.255.263-16.973,17.339-16.973,17.7a0.064,0.064,0,0,0,.045.069,6.78,6.78,0,0,0,2.046.3c12.13,0-3.428,4.84,3.18,4.84,1.447,0,2.892-.252,4.342-0.252,0.728,0,1.789-.029,2.1.6-1.91,1.745-4.724,2.713-3.464,5.89-2.1.9-4.087,1.7-4.038,4.454l55,2.337,0.008-.028c0.337-1.209,1.177-2.126,2.365-1.668a4.765,4.765,0,0,1,2.067,2.224,27.608,27.608,0,0,1,.924,3.143l21.937-6.02,0.336-.148c-1.2,1.7-2.082,2.779-2.758,3.972-0.846,1.495-1.177,3.065.031,4.611,34.842-9.46,27.844-7.6,30.086-8.066,0.85,2.362,1.841,3.643,3.424,3.969l15.429-3.789c1.246,4.252,2.5,4.617,7.163,1.625,1.721,1.237,2.466,4.63,2.466,4.63s5.337-4.923,5.93-4.525c2.358,1.585,3.01,5.316,3.01,5.316,4.035-.949,9.414-7.278,9.915-10.036,0,0.575,1.378,3.193.528,5.922,1.78,1.647,2.751.961,15.631-8.814-0.521,2.676-2.509,4.786-.325,6.7,1.469,1.29,3.1.441,4.556-.358,3.109,2.353,1.837,4.225,15.666-15.225a12.406,12.406,0,0,1,1.636-1.545,0.479,0.479,0,0,1,.308-0.159c2.658,0,3.365,16.951,6.111-2.7,0.24-1.716,1.074-2.267,4.278-5.72,2.81,1.016,2.805,1.014,3.88-2.025,0.5-1.41,1.017-2.812,1.825-5.042,0.149,0.235.277,0.458,0.39,0.667,0.7,1.284,1.869,2.694,3.184,2.694,0.034,0,.068,0,0.1,0,1.227-.068,2.077-4.933,2.077-5.935q0-.114,0-0.228c-0.027-.721-0.06-1.443-0.052-2.162,0.015-1.236.191-2.439,1.954-2.83,0.077,0.106.161,0.212,0.248,0.319,0.935,1.159,2.307,4.658,3.1,4.658,1,0,3.335-5.273,3.938-7.93,0.211-.931.42-1.864,0.636-2.8,6.551-.141,4.568-11.832,8.656-10.342,2.581,0.94,2.392,4.912,4.41,6.279,0.586,0.4,7.287,1.163,7.258,1.332-0.443,2.5-1.468,4.558.794,5.657,1.7,0.828,2.7-.625,3.7,1.174,0.568,1.018-.277,3.792-0.53,4.855,6.816-.476.588,6,5.245,5.775a25.268,25.268,0,0,1-.549,3.227l21.942,29.82,0.151,0.044,53.114-2.741a2.513,2.513,0,0,0,.006-0.668c1.435-1.877,3.081-3.606,4.639-5.4s1.583-2.376.02-4.2l-7.472-8.4c-1.1-1.545-3.3-2.2-3.3-3.966,0-.441.893-1.1,1.555-1.759-3.612-2.167-5.882,1.19-5.882-3.012a0.9,0.9,0,0,0-.936-0.856c-0.725,0-1.671.58-2.539,0.58l-0.1,0q-0.154-.009-0.308-0.008c-4.2,0-9.239,4.771-12.037-3.309-2.3-6.629-4.533-13.281-7-19.847a5.151,5.151,0,0,1,1.621-6.415c2.452-2.018,4.953-4,7.582-5.774,5.453-3.685,11.005-7.223,16.513-10.827,0.964-.63,1.909-1.289,2.928-1.978,0.387,1.728,1.016,3.173.969,4.6-0.111,3.278-.612,6.54-0.825,9.818a25.851,25.851,0,0,0,.369,3.936l3.717-1.643c0.717,4.534.153,9.4,4.779,12.1a27.24,27.24,0,0,0-.508,2.681c-0.354,4.033,2.53,3.827,4.9,3.978,3.39,0.214,1.321,2.552,3.426,4.876l28.434,11.64a6.7,6.7,0,0,1,2.7,3.667,10.534,10.534,0,0,0,10.438,7.469c2.767,3.045,7.838,6.636,10.73,7.04l61.193,2.043a8.086,8.086,0,0,0,5.453-4.613l0.08-.006c-0.016-.037-0.022-0.07-0.036-0.106,0.434-1,1.065-2.954.713-4.043,0.929-1.3,2.157-2.5,2.157-4.2-0.82-.743-1.732-1.685-2.757-2.48a51.691,51.691,0,0,1-9.417-9.78,1.575,1.575,0,0,1-.3-0.971c0-3.194,3.174-3.932-.418-3.932-1.554,0-3.157.445-4.632,0.445-0.289,0-1.793-.1-1.793-0.388a14.607,14.607,0,0,0,.7-2.182c-10.235,2.559-9.583,6.965-15.226,4.258q-13.2-6.335-26.577-12.3a16.048,16.048,0,0,1-6.2-4.122c-1.454-1.76-2.943-2.506-5.118-1.269-0.393.224-1.144-.182-1.729-0.3l-0.208-.642c3.29-.986,3.542-3.687,3.9-6.287a28.826,28.826,0,0,0,.189-3.612c0.027-2.359.008-4.718,0.008-7.191,2.344,0.09,4.512,1.418,6.566-.167,2.07-1.6.907-4.129,1.7-6.207,3.211-.088,3.855-2.267,4.265-4.864,0.612-3.876,1.459-7.715,2.2-11.534,7.336,0.578,4.613,1.669,10.826,5.683,2.842,1.836,5.39,1.287,7.4-1.5,0.808-1.119,1.553-2.283,2.447-3.6,1.857,3.874,3.223,4.489,6.9,3.329,0.857-.27.516-0.157,13.932-6.663,0.5,0.9.919,1.667,1.348,2.421,2.948,5.188,5.5,5.9,10.769,3.028,0.1-.053.189-0.112,0.286-0.164,3.291-1.753,6.56-3.549,9.885-5.236a39.312,39.312,0,0,1,4.053-1.523c0.166,0.95.225,1.484,0.356,2,0.87,3.432,3.248,4.678,6.438,3.242a37.245,37.245,0,0,0,3.955-2.344c1.855-1.131,3.7-2.273,5.549-3.406,2.679,1.987,4.375,4.66,8.309,4.37,3.826-.282,5.757-2.754,8.175-4.812,3.573,3.681,4.278,3.807,8.471,1.078,3.45-2.246,6.757-5.629,8.462-4.917a42.835,42.835,0,0,1,5.108,2.925,23.113,23.113,0,0,1-.518,2.391c-3.31,9.93,6.678,12.755,6.678,21.315,0,6.591-4.816,13-4.816,19.558,0,0.6.152,3.536,0.747,3.536,0.793,0,3.035-1.289,4.082-1.289a0.461,0.461,0,0,1,.55.488,27.538,27.538,0,0,0-.345,4.212c0,8.831,4.522,17.3,8.1,25.167l11.793,23.7c0.186,0.12.376,0.234,0.569,0.344l50.954-.693,0.493-1.321a4,4,0,0,0,.86-1.242,4.408,4.408,0,0,0,.356-2.016l-3.534-5.869c-0.2-1-3.616-3.841-3.616-6.531,0-4.535,11.05.09-3.464-6.26a0.423,0.423,0,0,1-.267-0.418c0-1.609,3.229-2.8,3.229-4.126,0-2.3-8.682-3.132-9.689-3.132-0.359,0-.721.017-1.09,0.054l-0.809-.6c-2.637-.726-5.443-0.5-8.272-0.95a11.472,11.472,0,0,1-2.682-4.575c-0.456-2.254.263-4.764,0.567-7.15,0.761-5.97,2.023-11.917,2.243-17.9a156.36,156.36,0,0,1,1.577-17.978c0.206-1.345.239-2.818,1.54-3.7a0.569,0.569,0,0,1,.313-0.115c4.468,0-3.938,14.95,10.862-1.592,0.253-.282.52-0.58,0.806-0.9a53.456,53.456,0,0,0,.477,6.15c0,0.266-.006.537-0.006,0.8,0,1.7.3,2.222,1.763,2.222,12.838,0,10.632-20.283,18.072-.445,5.234-2.617,8.258-7.473,12.477-11.463,2.158-2.041,4.417-2.441,6.223-1.422l10.7,21.584c1.38-.172,2.44-1.779,3.506-1.779,3.485,0,4.409,9.818,8.421,3.131,1.611,1.812,1.825,5.057,4.043,5.215l0.082,0a7.389,7.389,0,0,0,2.954-1.029l13.256,8.081a5.846,5.846,0,0,0,1.322-.238c5.462-1.623,9.44,1.041,12.119,5.092,1.9,2.869,4.365,4.1,7.167,5.275,1.921,0.807,3.833,1.665,5.817,2.284a5.018,5.018,0,0,1,3.771,4.416l14.463,17.135c0.993,0.458,1.935,1.031,2.89,1.57,6.9,3.888,13.509,8.143,18.551,14.413a4.568,4.568,0,0,0,3.931,1.958c7.559-.247,15.121-0.407,22.68-0.656a3.468,3.468,0,0,0,2.123-.713c2.35-2.217,4.587-4.553,6.933-6.916-1.574-1.846-2.955-3.4-4.257-5.007-1.068-1.322-4.73-5.427-4.73-7.574,0-1.186,2.673-1.125,2.673-1.789a0.313,0.313,0,0,0-.031-0.13c-1.073-2.36-6.536-3.556-6.536-5.252,0-.742,2.421-1.316,2.421-1.81a0.161,0.161,0,0,0-.026-0.086c-2-3.256-7.048-2.3-10.574-3.867-2.5-1.109-5.209-1.9-6.682-4.354l-15.727-18.679a24.7,24.7,0,0,1-2.623-5.533,8.642,8.642,0,0,0-4.708-5.2L208.6-610.252c-3.8-7.568-7.474-15.194-11.225-22.785,0.348-1.844.747-3.68,1.11-5.524,3.973-20.2,7.925-12.507,10.51-15.645a3.768,3.768,0,0,0,.838-2.5c0-2.388-1.546-5.212-1.546-7.842,0-.718,2.594.756,3.689,0.756,1.147,0,1.592-3.112,1.592-4.65,0-1.792-.291-3.652-0.291-5.378,0-3.165.681-3.538,1.715-3.538,1.107,0,2.674.538,3.98,0.538,2.91,0,4.378.839,4.378-6.512,0-12.908-2.36-5.042,6.711-5.042,1.419,0,1.7-2.039,1.7-3.455s-0.261-2.924-.261-4.275c0-1.141.341-3.169,1.436-3.169,1.283,0,3.461,1.725,5.821,1.725,0.89,0,.891-0.218.891-1.147,0-1.266-.384-3.263-0.384-4.927,0-4.7,1.385.223,5.653,0.223,1.243,0,2.084-7.207,3.331-9.909,1.264,0.542,2.559,2.086,3.707,2.086,3.473,0,.385-8.564,5.919-8.564,1.78,0,7.186,1.824,7.4,1.824,1.021,0,1.046-3.33,1.046-4.72,0-6.1-2.316-4.373,3.176-4.373,1.552,0,3.117-.091,4.67-0.091,4.024,0,3.793.724,3.793-.433a0.919,0.919,0,0,0-.289-0.7l1.7-16.318-4.937-19.33a5.982,5.982,0,0,1,3.984-4.308c1.824-.756,3.664-1.478,5.521-2.146,4.329-1.559,8.686-3.043,13.006-4.627a5.791,5.791,0,0,0,3.244-2.407l4.559-21.928a4.607,4.607,0,0,1,1.85-2.839,2.058,2.058,0,0,0,.5-1.188c0.454-2.257.874-4.521,1.3-6.783,0.345-1.826-.245-2.934-1.988-3.955a70.625,70.625,0,0,1-10.59-7.156c-4.117-3.556-6.657-8.161-5.915-13.911a2.706,2.706,0,0,0-1.723-3.108c-1.639-.878-3.194-1.918-4.75-2.942-9.345-6.15-18.648-12.364-28.043-18.434a4.192,4.192,0,0,1-2.166-4.633c0.7-5.126,1.471-33.509,1.471-31.7,0-4.992-.28-3.689-1.565-3.689-0.177,0-.312.05-0.312-0.567,0-1.356,1.468-2.409,1.468-3.784a1.921,1.921,0,0,0-.031-0.345,0.036,0.036,0,0,0-.043-0.027c-0.168,0-.775.4-0.944,0.4a0.036,0.036,0,0,1-.043-0.027,2.67,2.67,0,0,1-.043-0.479c0-1.53,1.241-2.938,1.241-4.491,0-20.479-7.776,10.018-8.452,11.668-3.819,9.321-8.078,18.461-12.54,28.523-0.983-1.837-1.615-2.95-2.185-4.093-5.142-10.32-10.525-20.5-17.66-29.624-1.447-1.85-3.015-3.615-4.637-5.326-2-2.112-5.045-4.888-8.817-4.888-0.842,0-1.523.255-1.523,1.1,0,0.257,2.816,8.816,2.816,12.188,0,0.454.043,0.833-.407,0.833-3.579,0,1.149,1.127,1.149,4.661,0,0.208-.052.406-0.237,0.406-1.209,0-3.786-.238-3.786.388a0.36,0.36,0,0,0,.018.105c0.575,1.867,1.714,3.417,1.714,5.473l-6.726,36.656a4.876,4.876,0,0,1-2.987,3.23c-2.13.872-4.216,1.855-6.3,2.831-6.371,2.98-12.792,5.841-19.755,7.156-3.869.73-7.765,1.337-11.667,1.864-1.561.211-2.805,0.7-3.277,2.254a3.442,3.442,0,0,0,1.008,3.9c0.539,0.456,1.106.878,1.677,1.328-7.613,1.982-15.015,3.932-22.432,5.822a3.361,3.361,0,0,0-2.764,2.863c-0.334,1.8-.695,3.6-1.13,5.854-6.322.591-12.634,1.129-18.935,1.782Q95.8-810.934,85.043-809.63c-2.248.273-4.548,1.426-6.664,1.108L51.047-818.606c-2.548-.716-4.8-0.982-5.9,1.272l-6.689.521-216.317,5.883a38.1,38.1,0,0,1-12.032-.341,4.1,4.1,0,0,0-2.535.343c-4.444,2.24-5.129,4.682-2.667,8.96a3.29,3.29,0,0,1-.04,1.061c-1.35,0-2.74-.05-4.124.009-4.061.174-5.7,2.954-3.826,6.472,1.214,2.28,2.459,4.542,3.749,6.919-1.042.6-1.872,1.12-2.741,1.564-36.862,18.842-41.363,24.092-63.576,41.714a6.072,6.072,0,0,0-.916.939c-1.963,2.419-1.67,4.6.869,6.434,0.959,0.692,1.94,1.368,3.046,2.137-7.021,6-14.3,11.7-19.875,19.024-1.618,1.807-3.16,3.649-4.646,5.438a2.543,2.543,0,0,0,1.1,4.178,24.6,24.6,0,0,0,9.813,1.342c-15.7,16.748-27.55,34.08-27.7,39.977-0.092,3.634,3.252,5.854,5.583,8.317-4.56,4.707-7.607,11.5-11.561,16.543a2.55,2.55,0,0,0,.059,3.554l-49.2,46.952-0.613.585a7.213,7.213,0,0,1-2.3.058c-5.134-.609-10.052.084-14.13,3.821a4.281,4.281,0,0,1-2.733.713c-9.209-.133-17.751,2.4-25.979,6.295a4.586,4.586,0,0,1-2.432.739L-435.2-572.4l-50.22,25.358c-0.636,1.522.324,3.027,2.825,4.473a1.25,1.25,0,0,1,.224.564m753.479,20.342c2.312,1.369,4.6,2.782,7.147,4.33a3.722,3.722,0,0,1-4.423.592,51.418,51.418,0,0,1-5.343-3.6C269.142-521.661,269.8-522.435,271.106-521.664Zm-7.991,3.045c1.367-.272,2.067.691,1.487,1.965a3.633,3.633,0,0,1-3.619,2.285,2.974,2.974,0,0,1-3.231-2.831C259.622-517.706,261.348-518.268,263.115-518.619Zm-11.634-8.468c0.58-1.077,3.605-1.892,5.085-1.256a5.681,5.681,0,0,1,3.656,4.54,49.371,49.371,0,0,1-4.768,1.409,3.313,3.313,0,0,1-2.128-.538C251.735-523.911,250.89-525.989,251.481-527.087Zm-429.128-.67,0.087-.007,11.953,9.784q0.176,0.34.33,0.7l-1.843,2.515-30.559.63c-5.511.833-14.735,2.679-17.192-1.757-0.477-.861-1.038-1.675-1.533-2.527-3.966-6.827-7.882-13.683-11.925-20.463a3.937,3.937,0,0,1-.548-3.684c0.692-1.844,1.307-3.72,2.059-5.539,1.507-3.649.18-6.047-3.672-6.546-0.713-.093-1.413-0.289-2.027-0.418a4.357,4.357,0,0,1-.168-0.88c0.373-4.8-.676-6.039-5.453-7.271a57.914,57.914,0,0,1-6.753-2.7c3.3-3.606,4.178-8.19,7.938-10.951,3.338-2.451,2.815-5.154-1.027-6.764-1.678-.7-3.519-1.245-4.689-3.262,0.86-.956,1.792-1.858,2.568-2.879,1.921-2.524,4.321-4.867,5.531-7.708a83.145,83.145,0,0,1,8.972-15.642c2.341-3.286,2.25-3.577-1.437-5.567a2.426,2.426,0,0,1-.483-0.648c0.491-3.44-1.573-6.162-3.176-8.995-5.53-9.77-9.295-20.08-10.026-31.378a10.666,10.666,0,0,0-.7-2.2c-2.307,2.11-2.537,4.616-2.491,6.928a167.889,167.889,0,0,0,.992,17.05c0.678,5.531,2.043,10.977,3.035,16.474a3.492,3.492,0,0,1-.241,2.437l-41.7,45.5q-0.225.285-.453,0.57c-1.093-.459-1.99-0.825-2.878-1.209a7.446,7.446,0,0,0-6.65.169l-4.254,9.092c-0.848,4.832-1.706,9.662-2.547,14.424-2.4.083-3.959,0.8-4.39,2.84-1.411,6.669-5.062,12.345-8.024,18.328a20.842,20.842,0,0,1-1.437,2.077c0-2.641-.011-4.612,0-6.582,0.012-1.755-.347-3.322-2.2-4.018-1.82-.685-3.263.165-4.381,1.461-1.212,1.4-2.2,3-3.333,4.475-1.9,2.489-3.828,4.954-5.745,7.429l-0.622-.368c0.34-1.689.744-3.367,1-5.068l-8.827-6.827a5.815,5.815,0,0,0-2.665,2.192c-4.112,5.234-9.314,9.254-14.587,13.194a13.714,13.714,0,0,1-2.4,1.119,12.606,12.606,0,0,1-.327-1.987,18.239,18.239,0,0,1,.251-2.614c0.946-5.65.763-6.013-4.272-8.162-2.336-1-3.51-.616-5.164,1.279-1.262,1.447-2.747,2.7-4.24,4.143a5.283,5.283,0,0,0-4.327-1.92c-27.82,17.037-24.87,15.255-25.952,15.834,0.677-2.757.854-4.916,2.385-6.415a4.693,4.693,0,0,0,1.68-3.655l-4.335-5.778c-2.318-.185-4.217,2.644-6.851,4.606-5.761,4.292-12.24,7.272-18.788,10.112a20.663,20.663,0,0,1-2.216.7c0-2.032.041-3.868-.009-5.7-0.11-4.075-1.415-3.062-3.833-2.254-34.5,11.517-15.1,3.549-38.238,6.993,1.784-7.1,2.973-9.5.043-9.259a27.949,27.949,0,0,0-3.876.873c-0.758-2.819-2.85-3.043-5.214-2.672-2.041.321-4.078,0.666-6.117,1A28.731,28.731,0,0,1-481-529.12c0.845-.638,2.146-1.1,1.69-2.482-0.508-1.535-1.846-.63-2.842-0.731a1.645,1.645,0,0,1-.312-0.609c19.664-14.668,19.415-13.7,19.415-13.7,2.715-1.986,2.862-3.054.971-5.954a3.177,3.177,0,0,1,.042-1.07l40.574-14.8,22.167,1.954a6.235,6.235,0,0,0,.845.106l8.052-5.244a3,3,0,0,0-.115-0.287,23.255,23.255,0,0,0-1.234-2.07l12.513-1.4a7.33,7.33,0,0,1,1.807.7c5.97,3.287,4.053-7.5,10.05-3.749,2.814,1.76,2.922,3.074,27.731-15.4a12.012,12.012,0,0,0,1.9,1.455l35.753-35.809a3.019,3.019,0,0,1,.516-0.044c5.38,0,3.313,15.871,11.78-23.348,1-4.625,3.523-8.45,5.869-12.413,2.392-4.04,2.276-4.346-1.021-7.832,0.328-1.007.694-2.139,1.064-3.27,2.227-6.809,14.554-24.951,25.981-33.9a30.753,30.753,0,0,0,2.791-2.788,3.561,3.561,0,0,0,.72-4.514c-0.864-1.576-2.384-1.789-4.014-1.453-3.038.626-6.073,1.266-9.213,1.922-1.039-1.151-.247-2.213.666-2.975a23.857,23.857,0,0,1,4.816-3.381c3.459-1.649,7.07-2.979,10.605-4.47,2.556-1.078,2.8-2.228.6-3.949a2.8,2.8,0,0,1-1.229-3.288,5.788,5.788,0,0,1,2.44-3.988c1.934-1.391,1.886-2.573.3-4.353-0.061-.068-0.127-0.139-0.189-0.207,6.707-5.4,50.835-35.519,63.637-40.589a2.549,2.549,0,0,0,1.746-3.075,25.8,25.8,0,0,0-1.427-3.494c3.164,0.139,6.425-.305,8.345-2.429,3.273-3.622.154-7.628-1.792-11.271,56.244-1.253,52.062-2.9,64.391-2.379l41.986-2.285c36.708-.949,104.87-1.906,119.426.482l21.642,4.763a14.588,14.588,0,0,1,2.354.991,12.9,12.9,0,0,1-1.2.934,19.2,19.2,0,0,0-3.7,2.05c-1.4,1.255.251,2.606,0.327,3.943,0.191,3.35,1.206,4.151,4.453,3.561,1.339-.243,2.663-0.57,3.994-0.859L69.667-782.2c0.276,1.188,1.405,1.987,3.448,2.608a28.765,28.765,0,0,1,4.741,1.986,2.6,2.6,0,0,0,3.516-.64,5.015,5.015,0,0,0,.527-5.814c-0.362-.633-0.769-1.241-1.239-1.994a12.481,12.481,0,0,0,2.346-2c0.658-.937,1.519-2.173,1.38-3.15-0.527-3.7,2.261-5.744,4.482-6.737,3.387-1.514,7.418-1.586,11.176-2.271-0.6.844-1.447,0.939-1.982,1.4a3.865,3.865,0,0,0-1.47,2.2,2.537,2.537,0,0,0,1.631,1.674,8.858,8.858,0,0,0,3.861.376c4.209-.719,8.39-1.614,12.565-2.518,3.368-.73,6.711-1.57,10.065-2.361l0.238,0.673a14.064,14.064,0,0,0-3.089,1.572,4.263,4.263,0,0,0-1.541,2.6,2.232,2.232,0,0,0,2.391,2.235L142-803.377a7.721,7.721,0,0,0-1.358-3.731c-0.5-.843-1.164-1.593-1.7-2.419-0.432-.665-0.788-1.38-1.223-2.154,1.715-.342,3.377-0.622,5-0.918l30.7-11.844a10.534,10.534,0,0,1,7.606-1.04,7.527,7.527,0,0,1,.15,1.48c0,5.432-7.236,10.177-7.236,13.171,0,1.277,3.72,1.081,3.72,2.81,0,9.576-13.235,20.524-7.347,20.524l28.513-16.572c0.732-1.587.018-3.292-2.094-4.536-4.9-2.887-5.587-4.973-4.423-9.712,1.277-5.2,3.31-10.208,5.082-15.276,0.529-1.512,1.286-2.945,1.982-4.512,2.1,0.842,3.915,1.556,5.719,2.289,3.84,1.561,7.632,3.254,11.533,4.643a3.134,3.134,0,0,0,4.083-1.848,3.525,3.525,0,0,0-1.661-4.5,14.189,14.189,0,0,0-3.085-1.084,44,44,0,0,1-12.022-4.9c0.127-1.038.244-2.04,0.362-3.023l3.63-31.107a80.485,80.485,0,0,0,.866-9.385c0.047-2.24,1.246-3.569,3.081-4.824a55.129,55.129,0,0,1,4.412,7.322c0.217,0.48.441,0.957,0.688,1.422q6.7,12.644,13.584,25.19a12.746,12.746,0,0,0,2.48,3.029,3.412,3.412,0,0,0,4,.446,2.966,2.966,0,0,0,1.69-3.263c-0.05-.631-0.109-1.261-0.163-1.877,4.862-.832,5.085-0.913,7.567,1.027,10.573,8.265,22.008,15.205,33.53,22.02,1,0.589,1.917,1.308,3,2.052-1.469,1.632-2.355,3.071-1.415,5,0.8,1.646,1.386,3.4,2.253,5.01,0.228,0.421,1.157.449,1.752,0.688,3.144,1.266.538-.469,13.03,8.11a19.785,19.785,0,0,1,3.159,2.343,3.184,3.184,0,0,1,.711,2.288c-0.135,1.281-1.082,1.687-2.4,1.614-5.939-.331-3.54.937-5.917,4.969-1.282,2.177-1.222,2.885,1.113,3.556,2.008,0.577,2.358,1.739,2.1,3.4-0.565,3.681-1.229,7.347-1.812,11.026a4.7,4.7,0,0,1-1.759,3.165l-29.109,11.956-12.267,12.186-0.1.12c4.429,1.941,7.818-.077,11.065-1.154l3.406,17.9c1.208,2.156,2.545,4.24,4.139,6.86l-14.452,2.013c-1.448.829-1.809,2.312-1.621,5.064l-8.887,1.413a3.847,3.847,0,0,0-.155,3.724c0.37,0.988.835,1.941,1.412,3.265l-9.786,1.59-0.038.068,0.238,4.93-8.47.854-1.788,5.1-4.418,1.152a2.65,2.65,0,0,0-.294.516l1.173,7.375-8.851,3.036,0.192,7.742,0.09,0.3c-2.02.445-3.743,0.721-5.4,1.212a8.115,8.115,0,0,0-3.526,1.947l-1.252,9.291a2.6,2.6,0,0,1-1.739,1.24,6.146,6.146,0,0,0-2.891,1.784L197.993-657.4q-0.164.3-.355,0.6l-7.156,16.709a10.048,10.048,0,0,1-.84,1.047c-5.122-.677-5.691-0.077-7.671,4.9-1.242,3.118-3.207,5.951-4.887,8.89-0.856,1.5-2.062,1.765-3.624.979-2.17-1.093-4.039-1.122-5.771,1.122-1.409,1.825-3.022,1.764-4.907.4-1.3-.945-2.562-1.954-4.105-3.138-0.751,1.346-1.332,2.374-1.9,3.407-1.109,2.017-2.084,4.124-3.363,6.027a7.71,7.71,0,0,1-3.2,3.082c-1.242.444-2.878-.217-4.251-0.382-3.076,2.344-6.2,4.736-9.335,7.113-1.992,1.51-4,3-6,4.5a4.5,4.5,0,0,1-2.237,1.208c-2.217,0-4.5-5.12-4.982-5.12-2.6,0-8.163,8.412-11.117,11.118l-0.173.155c-0.688-2.726-1.21-5.051-1.875-7.335a4.1,4.1,0,0,0-3.44-3.138,3.66,3.66,0,0,0-3.835,1.981c-0.874,1.368-1.793,2.706-2.794,4.209-1.465-4.012-3.06-4.823-6.422-3.361a8.386,8.386,0,0,0-2.058,1.6c-0.873.786-1.695,1.629-2.741,2.644-9.27-10.594-9.717-11.216-9.717-2.45a16.868,16.868,0,0,0,.189,2.621,83.374,83.374,0,0,0,2.344,11.741c0.007,5.883.525,20.258-1.989,35.558-0.267,1.627-2.02,3.064-2.235,4.638L81.7-533.913l-0.313.384c18.67,4.5,15.1,3.325,18.779,12.319,0.843,2.061,2.161,3.569,4.617,3.583,1.662,0.009,2.191,1.061,2.532,2.872a27.267,27.267,0,0,1-6.608.111c-3.279-.164-6.567-0.253-9.851-0.222-6.029.056-12.057,0.2-18.085,0.359-1.543.04-2.289-.6-2.9-2.041a139.272,139.272,0,0,0-11.924-23.038,14.732,14.732,0,0,1-2.486-8.692c-3.462-25.2-4.614-44.525-9.28-68.657-0.612-3.165-5.468-10.028-5.468-10.108,0,0,45.484-61.96,59.654-90.517a12.28,12.28,0,0,0,.768-6.438c-4.532,6.167-8.326,12.634-12.384,18.915-4.073,6.3-8.078,12.648-12.114,18.974l-0.637-.285c2.768-8.486,5.991-16.879,5.617-26.034A6.737,6.737,0,0,0,80.5-710.2c-8.284,26.575-10.023,25.525-49.981,76.819l2.584,14.571q0.021,0.149.044,0.3c-8.983.5-9.482,1.223-11.7-.779-2.376-2.14-4.5-1.553-6.131,1.182-1.954,3.273-4.731,5.845-7.557,8.961l-6.814-9.322c-1.1.981-2.084,1.968-3.177,2.82a28.543,28.543,0,0,1-4.8,3.4c-2.366,1.149-4,.133-4.551-2.423-0.295-1.359-.59-2.719-0.893-4.112a5.494,5.494,0,0,0-1.261.2q-6.779,3.342-13.54,6.721c-3.024,1.5-4.422.664-4.625-2.782-0.082-1.381-.16-2.763-0.238-4.116a6.893,6.893,0,0,0-5.886,1.337c-1.7,1.2-3.294,2.551-4.989,3.759a71.015,71.015,0,0,1-6.8,4.6c-2.7,1.488-4.373.37-4.611-2.711-0.086-1.122-.292-2.234-0.5-3.8-1.571.75-2.688,1.167-3.685,1.781-2.709,1.666-5.4,3.37-8.04,5.141-4.769,3.2-4.712,3.189-8.346-1.455-0.595-.76-1.826-1.678-2.583-1.539,0,0,1.984-1.2-57.58,8.957a38.379,38.379,0,0,0-5.9,4.019c-1.146.942-2.4,1.759-3.713,2.717-1.055-1.443-1.814-2.65-2.739-3.711-1.689-1.939-2.855-1.734-5.034-.517a14.424,14.424,0,0,1-6.692,2.154,7.463,7.463,0,0,0-2.334.284l-47.589,30.906q-0.441.129-.895,0.241a6.788,6.788,0,0,0-3.225,2.108,3.584,3.584,0,0,0-.727,2.881c0.162,0.572,1.553,1.068,2.417,1.108a40.15,40.15,0,0,0,5.031-.365l8.32,24.006c-1.907,1.194-3.739,2.35-5.579,3.491-1.861,1.154-3.784,2.216-5.577,3.467a1.837,1.837,0,0,0-.761,2.508Z"/><path class="cls-1" d="M128.8,43.978c-2.161.177-8.955,1.172-8.955,1.172s11.673,5,12.42,13.311a24.832,24.832,0,0,0-8.79-2.049c2.811,3.035,5.556,13.933.5,22.307-1.237-2.431-1.926-3.839-3.288-6.136-9.05,10.946-31.665,15.179-45,13.206-7.949-1.176-12.453-11.142-5.314-14.857,8.129-4.231,20.861.722,32.218-7.7,8.205-6.086-6.422-20.345-36.41-15.273-33.435,5.655-56.743,50.848-7.894,73.124,37.6,17.148,68.446-18.388,98.629-44.836C182.415,53.91,220,50.858,255.546,92.238c-6.546,1.118-19.637,5.747-24.4,7.841,0,0-13.622-20.178-40.806-14.913-32.326,6.261-47.365,54.367-101.133,61.57-31.916,4.276-72.458-18.765-77.329-50.519C-0.1,18.106,104.563,18.276,128.8,43.978Z"/><path class="cls-1" d="M444.262,91.763a42.223,42.223,0,0,1,1.138,5.19,194.29,194.29,0,0,0-24.335-5.642c16.343,10.492,18.1,12.448,34.594,27.5,2.291,2.09,3.395,2.582,6.047-.731,3.467-4.332,8.534-10.588,13.413-14.449C464.195,96.92,444.262,91.763,444.262,91.763Z"/><path class="cls-1" d="M522.223,75.64c-19.758,7.016-45.164,32.955-56.2,49.568-2.782,4.188-10.278,4.123-14.7.328-42.355-36.326-30.648-29.434-63-54.521-5.567-4.317-10.367-2.234-11.59,4.681-6.219,35.167,3.114,64.207,14.646,88.813a54.041,54.041,0,0,1-5.963,6.862c7.66,13.94,21.374,25.983,34.656,38.665a39.752,39.752,0,0,1-6.711,7.289c5.57,1.25,11.348,1.956,17.121,2.686a32.889,32.889,0,0,1-9.589,5.242,100.053,100.053,0,0,0,30.178,10.56c8.192,6.01,14.945,11.738,30.587,7.03,3.452-1.039,7.3-4.6,7.3-4.6a13.565,13.565,0,0,0,8.6,1.474c4.282-.886,9.461-6.649,10.747-14.179a21.447,21.447,0,0,0,9.523-14.97,19.062,19.062,0,0,1-5.757-.5c9.6-35.99,9.624-45.927,2.676-73.6,1.342-9.743,9.364-30.455,15.189-54.513C531.426,75.811,528.275,73.491,522.223,75.64ZM407.067,129.6c0.625,1.375,2.775,5.383,3.4,6.758l-5.509-.224c0.964,0.839-.25,6.837-1.95,7.285-6.149-2.25-19.226-24.931-15.55-53.431a1.325,1.325,0,0,1,.978-1.09,1.535,1.535,0,0,1,1.4.443c14.854,12.755,26.516,22.684,29.069,39.283C418.9,128.619,412.733,125.908,407.067,129.6ZM466.5,193.224c-0.4.921-15.959,4.279-21.125,3.173-9.151-1.959-22.624-21.806-25.051-31.208,4.822-.768,10.242.327,15.348,2.216-1.287,6.072-.494,12.6.987,18.77,1.011,4.211,5.563,5.077,7.236,1.664a41.735,41.735,0,0,0,3.7-14.46C457.8,179.878,467.755,190.365,466.5,193.224Zm26.4,24.617c-1.351,3.513-2.714,9.219-4.791,14.287-4.749-4.488-9.8-6.959-14.918-10.882a1.818,1.818,0,0,1,.672-3.208c5.578-1.365,12.552-2.476,16.728-3.084A2.142,2.142,0,0,1,492.9,217.841Zm12.028-33.336c-5.4,1.924-18.027,5.783-19.3,6.124-0.67-3.975.147-8.537,1.807-13.132a42.814,42.814,0,0,0,1.1,5.1c1.171,4.169,6.457,4.021,8.573.864,4.848-7.234,5.059-17.876,2.419-26-0.018-.054-0.042-0.1-0.061-0.154,4.041-4.776,7.709-7.7,9-7C513.018,162.783,508.744,179.044,504.928,184.506ZM516.491,94.1c-3.507,9.232-10.826,22.385-11.719,35.461-0.1,1.5-.285,1.837-0.514,2.041a12.837,12.837,0,0,1-6.409-1.8c0.682-1.013,1.656-2.622,1.656-2.622a21.8,21.8,0,0,0-8.64-.88,13.588,13.588,0,0,1,5.523-4.683c-1.7-1.926-3.978-3.387-7.966-5.187,0.732-2.714,4.538-5.06,6.451-6.9a163.388,163.388,0,0,1,19.989-16.7A1.082,1.082,0,0,1,516.491,94.1Z"/><path class="cls-1" d="M269.535,297.549c2.923-13,2.48-27.644,2-36.457-0.31-5.641,1.8-10.761,6.128-13.414,10.368-6.353,44.445-3.734,38.062-19.86-4.866-12.293-17.922-21.078-32.21-42.668a57.581,57.581,0,0,0,28.02-3.348c16.854,19.656,35.235,41.017,30.866,56.911s-20.552,17.4-47,24.929c0.825,1.54,1.831,3.433,2.959,5.454,5.486,2.564,10.4,7.043,14.125,11.722a24.272,24.272,0,0,0-8.139-.407c2.461,3.363,4.9,4.976,7.406,4.987,14.519,0.065,17.2,1.111,19.1,2.328a55.766,55.766,0,0,1,8.032,6.529c6.876,7.782,3.339,11.656-7.583,15.218-1.217.4-3.756,1.148-3.756,1.148a13.42,13.42,0,0,1-10.774,8.6c-10.337,1.833-23.28-3.591-40.795-10.21C269.985,306.749,268.156,303.682,269.535,297.549Zm57.322,6.186c3.437,0.913,8.935-.764,8.149-4.381-0.681-3.133-6.545-7.806-10.165-8.171a15.2,15.2,0,0,0-9.9,2.987C317.952,295.441,324.549,300.315,326.857,303.735ZM290.9,306.58a0.875,0.875,0,0,0,.422.6c6.3,3.651,16.113,6.355,20.518,6.4,3.665,0.037,7.516-2.789,9.366-5.16a1.8,1.8,0,0,0,.126-2.022c-3.476-5.832-10.071-8.3-14.408-9.908a2.807,2.807,0,0,0-1.879-.117c-5.413,1.665-11.824,4.668-13.965,9.5A1.219,1.219,0,0,0,290.9,306.58Z"/><path class="cls-1" d="M539.642,261.856c14.557-4,30.047-22.005,21.483-36.543-6.514-11.057-24.437-17.8-40.8-21.977a88.563,88.563,0,0,0,4.351-23.882c29.176,9.078,72.039,25.42,63.02,66.391-2.394,10.875-10.879,19.352-27.424,29.027,8.93,1.916,18.278,7.641,21.391,12.262a10.358,10.358,0,0,0-4.125.953c2.489,1.9,6.1,7.307,6.354,12.286a17.736,17.736,0,0,0-5.612-2.108c1.468,3.811-.014,10.81-4.524,17.281-5.515,7.914-20.282,18.452-31.292,5.727-3.442-3.978-3.224-8.6.075-12.93,3.544-4.651,5.053-7.7,4.07-9.561-2.162-4.086-13.086-3.979-17.629-13.637C525.643,278.045,527.331,265.453,539.642,261.856Zm7.7,55.751c4.964,8.136,17.28,3.172,22.109-4.936-7.668,1-16.613.7-20.108,0.814S546.023,315.452,547.337,317.606Z"/><path class="cls-1" d="M461.827,274.861c-4.138-29.167-32.347-29.024-50.4-41.4-9.9-6.786-15.893-15.03-14.337-34.882-11.465-9.358-23.129-28.519-23.129-28.519l7.387-8.889s-13.752-19.748-13.2-37.123c-7.028,1.236-22.542,4.148-28.522,9.661,0.59-4.725.927-6.464,2.6-10.286-9.362,2.145-18.535,3-27.714,6.057l5.206-15.352a118.174,118.174,0,0,0-41.672,10.733l8.2-14.527c-8.557,1.1-17.535,3.539-26.556,6.106,6.784-7.623,21.163-12.422,31.21-14.425,12.093-2.411,32.676-5.66,52.75-3.28-1.286-3.128-2.585-6.294-2.585-6.294,6.166,0.222,24.271,4.307,26,5.251,0.017-3.815.576-11.871,0.576-11.871-5.127-2.04-23.48-6.578-37.324-5.907,1.152,2.1,2.39,4.624,2.673,5.386a133.273,133.273,0,0,0-43.461.164,40.321,40.321,0,0,1,7.313,4.521c-29.081,2.89-47.871,8.287-63.051,16.049-22.167,11.336-17.928,31.833-10.2,43.764,18.02,27.814,32.256,64.178,13.951,81.5-24.544,23.223-64.876-12.893-82.985-15.7-3.939-.611-9.119,3.3-10.347,7.543-7.293,25.232-6.157,36.6,1.577,74.744,0.617,3.044,1.283,5.177,4.257,6.065,3.608,1.077,7.2,2.275,10.887,3,4.754,0.942,12.179,3.366,17,3.587,8.557,0.587,12.2-3.124,12.594-4.535,6.742,1.444,13.919.721,18.486-3.833,2.8-2.792,3.062-7.682-.555-11.566a90.03,90.03,0,0,0-11.716-11.166c-2.278-1.809-14.817-1.4-23.794-5.216a15.548,15.548,0,0,1,5.607-2.427c-1.281-3.068-6.193-6.511-10.88-8.106a17.372,17.372,0,0,1,8.307-1.261c-5.766-6.144-11.5-11.922-10.733-16.558,37,16.979,60.194,25.974,87.958,6.61,19.428-13.55,29.693-40.005,14.345-79.319,10.845,2.656,20.324,5.638,38.089.52,8.336-2.4,14.741-2.352,23.261.855a37.425,37.425,0,0,1,16.183,11.3,9.336,9.336,0,0,0,4.1,3.19c4.905,1.38,9.083,2.29,13.872,3.347l0.007,0.031c3.759,20.933,3.262,39.754,19.605,55.08,10.6,9.936,33.734,13.745,43.217,21.469,6.431,5.238,3.644,10.86-4.085,13.755-7.463,2.8-19.28,3.911-27.01,4.274-11.121.522-16.382,6.284-15.667,17.317,0.723,11.16.064,19.533-1.8,33.263-0.959,7.05,10.155,11.29,21.384,17,18.263,9.283,25.417,5.819,29.383,3.59a5.32,5.32,0,0,0,2.955-5.718c10.136-1.716,23.949-7.992,11.681-20.088-7.54-7.434-8.868-7.4-18.833-7.748-7.1-.251-8.975-0.539-11.24-5.149a29.746,29.746,0,0,1,6.582-1.225c-1.742-3.9-6.985-9.313-11.122-11.07-0.159-.606-0.494-1.432-0.634-1.938C438,306.35,464.6,294.39,461.827,274.861ZM194.579,286.135a33.291,33.291,0,0,1,7.327,5.824c1.856,2.334,3.041,4.481,2.045,6.012-2.31,3.546-6.945,3.767-11.551,1.844a25.069,25.069,0,0,0-7.177-12.665A8.669,8.669,0,0,1,194.579,286.135Zm-19.55,3.32a1.084,1.084,0,0,1,1.027.04c7.656,4.519,12.9,10.98,9.155,13.145-3.827,2.212-6.395,2.093-9.543,1.673a51.22,51.22,0,0,1-12.719-3.649,1.082,1.082,0,0,1-.518-1.476C164.449,295.217,170.923,291.47,175.03,289.455ZM434.9,331.781c2.813,2.436,4.5,4.253,5.667,6.774,1.93,4.163-5.308,5.849-8.875,7.274-0.953-5.529-6.01-10.85-12.381-14.471C429.183,330.193,432.671,329.853,434.9,331.781Zm-23.669,3.148c3.942-.186,7.715,2.694,10.258,5.418,9.442,10.115,2.078,14.84-6.006,13.129-3.084-.653-12.491-4.94-17-7.448a1.51,1.51,0,0,1-.794-1.113,1.448,1.448,0,0,1,.484-1.279C401.043,341.133,407.143,336.12,411.229,334.928Z"/></svg>