<?xml version="1.0" encoding="iso-8859-1"?>
<!-- Generator: Adobe Illustrator 18.1.1, SVG Export Plug-In . SVG Version: 6.00 Build 0)  -->
<svg version="1.1" id="Capa_1" xmlns="http://www.w3.org/2000/svg" xmlns:xlink="http://www.w3.org/1999/xlink" x="0px" y="0px"
	 viewBox="0 0 464.257 464.257" style="enable-background:new 0 0 464.257 464.257;" xml:space="preserve">
<g>
	<g>
		<path style="fill:#325e87;"
    d="M428.274,53.231c-34-28.617-71.683-40.8-107.667-34.85c-46.467,7.65-73.667,30.033-88.4,48.167
			c-15.017-18.133-42.217-40.517-88.4-48.167c-5.95-1.133-12.183-1.417-18.133-1.417c-41.367,0-81.033,22.667-118.433,67.433
			l-0.283,0.283c-2.833,1.983-4.817,4.817-5.95,8.217c-1.133,3.117-1.133,5.667-0.85,7.933v329.233c0,6.8,3.967,13.033,10.2,15.583
			c6.233,2.55,13.6,1.417,18.417-3.4c0.567-0.85,66.583-63.183,120.983-63.183c48.45,0,65.45,53.55,66.017,55.817
			c0,0.283,0.283,0.283,0.283,0.567s0.283,0.85,0.567,1.133c0.283,0.567,0.567,1.133,0.85,1.7c0.283,0.283,0.283,0.567,0.567,0.85
			c0.283,0.567,0.85,1.133,1.133,1.7c0.283,0.283,0.283,0.567,0.567,0.567c0.567,0.567,1.133,1.133,1.417,1.417
			c0.283,0.283,0.283,0.283,0.567,0.567c0.567,0.567,1.417,1.133,1.983,1.417c0,0,0.283,0,0.283,0.283
			c2.55,1.417,5.383,2.267,8.217,2.267c0.283,0,0.283,0,0.567,0l0,0c0.567,0,1.133,0,1.7,0c0.283,0,0.567,0,0.85-0.283
			c0.283,0,0.567,0,0.85-0.283c0.567-0.283,1.417-0.283,1.983-0.567c0.283,0,0.567-0.283,0.567-0.283
			c0.567-0.283,1.417-0.567,1.983-1.133c0.283,0,0.283-0.283,0.567-0.283c0.567-0.283,1.133-0.85,1.7-1.417
			c0.283-0.283,0.283-0.283,0.567-0.567c0.567-0.567,1.133-1.133,1.417-1.417s0.283-0.567,0.567-0.85
			c0.283-0.567,0.85-1.133,1.133-1.7c0.283-0.283,0.283-0.85,0.567-1.133c0.283-0.567,0.567-1.133,0.567-1.7
			c0-0.283,0.283-0.283,0.283-0.567c0.567-2.267,17.567-55.817,66.017-55.817c54.4,0,120.7,62.333,121.267,63.183
			c3.117,3.117,7.367,4.817,11.617,4.817c2.267,0,4.533-0.567,6.8-1.417c6.233-2.55,10.2-8.783,10.2-15.583V102.531
			c0.283-1.133,0.283-2.55,0.283-3.683c0-5.667-1.417-8.783-12.183-21.25C447.541,71.365,439.041,62.298,428.274,53.231z
			 M149.757,345.065c-42.783,0-87.833,27.483-115.883,48.733V105.365c34.567-41.083,69.7-59.217,104.267-53.55
			c53.267,8.783,72.533,41.083,77.067,50.15v269.45C197.074,354.131,174.691,345.065,149.757,345.065z M430.541,393.515
			c-28.333-21.25-73.1-48.733-115.883-48.733c-24.933,0-47.033,9.067-65.45,26.35V101.965c4.533-9.35,24.083-41.083,77.067-50.15
			c4.25-0.567,8.5-1.133,12.75-1.133c44.767,0,81.033,40.233,91.517,53.267L430.541,393.515L430.541,393.515z"/>
	</g>
</g>
</svg>
