<?xml version="1.0" encoding="iso-8859-1"?>
<!-- Generator: Adobe Illustrator 18.1.1, SVG Export Plug-In . SVG Version: 6.00 Build 0)  -->
<svg version="1.1" id="Capa_1" xmlns="http://www.w3.org/2000/svg" xmlns:xlink="http://www.w3.org/1999/xlink" x="0px" y="0px"
	 viewBox="0 0 27.264 27.264" style="enable-background:new 0 0 27.264 27.264;" xml:space="preserve">
<g>
	<g>
		<path style="fill:#fafafa;" d="M15.434,5.723l-0.09,0.146h-0.001l0.962-1.559c0.075-0.122,0.134-0.249,0.18-0.378
			c0.066-0.052,0.124-0.112,0.168-0.183c0.194-0.315,0.104-0.757-0.187-1.185c-0.149-0.404-0.421-0.765-0.813-1.007l-0.243-0.15
			c-0.326-0.201-0.687-0.296-1.045-0.296c-0.066,0-0.132,0.018-0.197,0.025c-0.522-0.073-0.967,0.042-1.164,0.362
			c-0.046,0.075-0.073,0.157-0.089,0.244c-0.094,0.098-0.187,0.198-0.259,0.317l-2.402,3.896C4.369,7.091,0,11.107,0,15.888
			c0,5.66,6.115,10.266,13.633,10.266c7.516,0,13.631-4.605,13.631-10.266C27.262,10.689,22.098,6.39,15.434,5.723z M13.331,2.87
			c0.199,0.241,0.455,0.472,0.767,0.664l0.244,0.15C14.653,3.875,14.973,4,15.277,4.07l-0.784,1.272l-1.945-1.2L13.331,2.87z
			 M13.631,24.57c-6.644,0-12.049-3.896-12.049-8.684c0-3.628,3.106-6.739,7.501-8.036l-1.866,3.028
			c-0.027,0.044-0.042,0.09-0.066,0.135l-0.962,1.56l0.096,0.059c-0.116,0.174-0.215,0.374-0.262,0.624l-0.614,3.275
			c-0.134,0.705,0.055,1.095,0.444,1.095c0.207,0,0.472-0.11,0.775-0.343l2.649-2.02c0.203-0.153,0.349-0.325,0.453-0.506
			l0.107,0.065l4.679-7.586c6.23,0.329,11.163,4.078,11.163,8.65C25.68,20.676,20.275,24.57,13.631,24.57z M8.873,14.23
			c-0.027,0.066-0.08,0.146-0.202,0.238l-2.17,1.655l0.505-2.682c0.015-0.072,0.052-0.206,0.121-0.288l0.604,0.373
			c0.046,0.035,0.087,0.074,0.138,0.105l0.243,0.15c0.035,0.021,0.074,0.029,0.11,0.048L8.873,14.23z"/>
		<circle style="fill:#fafafa;" cx="13.795" cy="15.983" r="1.769"/>
		<circle style="fill:#fafafa;" cx="19.377" cy="15.983" r="1.769"/>
	</g>
</g>
</svg>
