<?xml version="1.0" encoding="UTF-8"?>
<!DOCTYPE svg PUBLIC "-//W3C//DTD SVG 1.1//EN" "http://www.w3.org/Graphics/SVG/1.1/DTD/svg11.dtd">
<svg version="1.1" id="Layer_1" xmlns="http://www.w3.org/2000/svg" xmlns:xlink="http://www.w3.org/1999/xlink" x="0px" y="0px" width="511.998px" height="422.408px" viewBox="0 0 511.998 422.408" enable-background="new 0 0 511.998 422.408" xml:space="preserve">
<path fill="#607026" d="M263.032,137.473c45.826,5.5,105.202,57.852,110.077,105.99c0,0,120.954-121.241,120.829-121.609  c24.825-24.832,23.938-35.201-1.926-58.383l-52.227-47.102c-24.925-22.532-34.525-21.638-57.951,1.663L263.032,137.473z   M326.396,243.987c-3.838-17.3-37.489-57.764-73.715-63.751C161.798,156.811,74.883,255.5,80.002,327.321  C88.209,385.96,11.519,394.136,0,396.823c75.777,26.388,108.021,32.525,178.167,17.662  C239.356,401.573,357.76,341.396,326.396,243.987z"/>
</svg>