<?xml version="1.0" encoding="UTF-8" standalone="no"?>
<!-- Created with Inkscape (http://www.inkscape.org/) -->
<svg xmlns:svg="http://www.w3.org/2000/svg" xmlns="http://www.w3.org/2000/svg" xmlns:xlink="http://www.w3.org/1999/xlink" version="1.0" width="377.91574" height="369.67596" viewBox="-50 -50 478 540">
  <defs id="defs4">
    <linearGradient id="linearGradient4098">
      <stop id="stop4100" style="stop-color:#607026;stop-opacity:1" offset="0"/>
      <stop id="stop4104" style="stop-color:#303813;stop-opacity:1" offset="1"/>
    </linearGradient>
    <linearGradient x1="346.23685" y1="537.41357" x2="359.4718" y2="537.41357" id="linearGradient3211" xlink:href="#linearGradient4098" gradientUnits="userSpaceOnUse" gradientTransform="matrix(0.6414802,0,0,0.778051,125.3732,117.52892)"/>
    <linearGradient x1="186.21062" y1="354.02182" x2="186.21059" y2="362.27768" id="linearGradient3327" xlink:href="#linearGradient4098" gradientUnits="userSpaceOnUse"/>
    <linearGradient x1="195.75447" y1="354.02182" x2="195.75444" y2="362.27768" id="linearGradient3329" xlink:href="#linearGradient4098" gradientUnits="userSpaceOnUse"/>
    <linearGradient x1="176.38606" y1="354.02182" x2="176.38603" y2="362.27768" id="linearGradient3331" xlink:href="#linearGradient4098" gradientUnits="userSpaceOnUse"/>
    <linearGradient x1="229.43869" y1="354.02182" x2="229.43866" y2="362.27768" id="linearGradient3333" xlink:href="#linearGradient4098" gradientUnits="userSpaceOnUse"/>
    <linearGradient x1="238.98254" y1="354.02182" x2="238.98251" y2="362.27768" id="linearGradient3335" xlink:href="#linearGradient4098" gradientUnits="userSpaceOnUse"/>
    <linearGradient x1="219.61412" y1="354.02182" x2="219.61409" y2="362.27768" id="linearGradient3337" xlink:href="#linearGradient4098" gradientUnits="userSpaceOnUse"/>
  </defs>
  <g transform="translate(-162.17883,-366.20177)" id="layer1">
    <path d="M 214,353.12833 A 8,13.5 0 1 1 198,353.12833 A 8,13.5 0 1 1 214,353.12833 z" transform="matrix(1.78125,0,0,1.7054674,-35.00867,108.10507)" id="path3226" style="opacity:1;fill:url(#linearGradient3337);fill-opacity:1;fill-rule:nonzero;stroke:#000000;stroke-width:2.8687048;stroke-linecap:round;stroke-linejoin:round;stroke-miterlimit:4;stroke-dasharray:none;stroke-opacity:1"/>
    <path d="M 214,353.12833 A 8,13.5 0 1 1 198,353.12833 A 8,13.5 0 1 1 214,353.12833 z" transform="matrix(1.78125,0,0,1.7054674,-69.50867,108.10507)" id="path3228" style="opacity:1;fill:url(#linearGradient3335);fill-opacity:1;fill-rule:nonzero;stroke:#000000;stroke-width:2.8687048;stroke-linecap:round;stroke-linejoin:round;stroke-miterlimit:4;stroke-dasharray:none;stroke-opacity:1"/>
    <path d="M 214,353.12833 A 8,13.5 0 1 1 198,353.12833 A 8,13.5 0 1 1 214,353.12833 z" transform="matrix(1.78125,0,0,1.7054674,-52.50867,108.10507)" id="path3230" style="opacity:1;fill:url(#linearGradient3333);fill-opacity:1;fill-rule:nonzero;stroke:#000000;stroke-width:2.8687048;stroke-linecap:round;stroke-linejoin:round;stroke-miterlimit:4;stroke-dasharray:none;stroke-opacity:1"/>
    <path d="M 214,353.12833 A 8,13.5 0 1 1 198,353.12833 A 8,13.5 0 1 1 214,353.12833 z" transform="matrix(1.78125,0,0,1.7054674,41.99133,108.10507)" id="path3224" style="opacity:1;fill:url(#linearGradient3331);fill-opacity:1;fill-rule:nonzero;stroke:#000000;stroke-width:2.8687048;stroke-linecap:round;stroke-linejoin:round;stroke-miterlimit:4;stroke-dasharray:none;stroke-opacity:1"/>
    <path d="M 214,353.12833 A 8,13.5 0 1 1 198,353.12833 A 8,13.5 0 1 1 214,353.12833 z" transform="matrix(1.78125,0,0,1.7054674,7.4913299,108.10507)" id="path3220" style="opacity:1;fill:url(#linearGradient3329);fill-opacity:1;fill-rule:nonzero;stroke:#000000;stroke-width:2.8687048;stroke-linecap:round;stroke-linejoin:round;stroke-miterlimit:4;stroke-dasharray:none;stroke-opacity:1"/>
    <path d="M 214,353.12833 A 8,13.5 0 1 1 198,353.12833 A 8,13.5 0 1 1 214,353.12833 z" transform="matrix(1.78125,0,0,1.7054674,24.49133,108.10507)" id="path3222" style="opacity:1;fill:url(#linearGradient3327);fill-opacity:1;fill-rule:nonzero;stroke:#000000;stroke-width:2.8687048;stroke-linecap:round;stroke-linejoin:round;stroke-miterlimit:4;stroke-dasharray:none;stroke-opacity:1"/>
    <path d="M 135.25,321.125 C 129.4436,321.125 124.46969,326.75535 122.25,334.8125 C 141.22108,339.88679 162.06417,342.84665 183.96875,343.25 C 183.67038,330.96519 177.42587,321.12501 169.75,321.125 C 166.44909,321.125 163.4167,322.95247 161,326 C 158.5833,322.95247 155.55091,321.12501 152.25,321.125 C 149.06422,321.125 146.12394,322.82984 143.75,325.6875 C 141.37606,322.82984 138.43578,321.12501 135.25,321.125 z M 212.25,321.125 C 204.59379,321.125 198.3593,330.91547 198.03125,343.15625 C 219.91183,342.45191 240.6471,339.1727 259.46875,333.8125 C 257.12155,326.29688 252.31164,321.12501 246.75,321.125 C 243.44909,321.125 240.4167,322.95247 238,326 C 235.5833,322.95247 232.55091,321.12501 229.25,321.125 C 226.06422,321.125 223.12394,322.82984 220.75,325.6875 C 218.37606,322.82984 215.43578,321.12501 212.25,321.125 z" transform="translate(162.17883,366.20177)" id="path3250" style="opacity:1;fill:#000000;fill-opacity:0.31372549;fill-rule:nonzero;stroke:none;stroke-width:6.42854929;stroke-linecap:round;stroke-linejoin:miter;stroke-miterlimit:4;stroke-dasharray:none;stroke-opacity:1"/>
    <path d="M 516.8372,534.26593 A 165.56416,165.56416 0 1 1 185.70888,534.26593 A 165.56416,165.56416 0 1 1 516.8372,534.26593 z" id="path2385" style="opacity:1;fill:#c7d9b3;fill-opacity:1;fill-rule:nonzero;stroke:#000000;stroke-width:5;stroke-linecap:round;stroke-linejoin:miter;stroke-miterlimit:4;stroke-dasharray:none;stroke-opacity:1"/>
    <path d="M 418.63184,583.05383 C 395.24949,578.7095 416.64885,602.14014 413.06353,610.61212 C 398.88997,603.64293 404.29055,626.71508 397.88124,633.1244 C 385.73663,632.4749 383.84094,644.72137 375.36896,648.30669 C 365.13226,642.62731 357.58399,653.87501 347.81067,653.87501 C 338.03735,653.87501 332.25377,643.06849 320.25238,648.30669 C 311.7804,644.72137 309.88471,632.91607 297.7401,633.1244 C 291.33078,626.71508 292.3196,602.31939 282.5578,610.61212 C 278.97248,602.14014 295.5189,576.9448 276.98949,583.05383 C 276.98949,573.28051 296.61954,555.144 282.5578,555.49554 C 286.14313,547.02356 304.1249,540.71611 297.7401,532.98326 C 310.55873,520.16463 328.26403,512.23266 347.81067,512.23266 C 367.35731,512.23266 385.06261,520.16463 397.88124,532.98326 C 388.4082,537.62787 409.47821,547.02356 413.06353,555.49554 C 397.23708,554.70282 418.63184,573.28051 418.63184,583.05383 z" transform="matrix(1.1333333,0,0,1.1333333,-41.338584,-43.746347)" id="path3167" style="fill:#ffffff;fill-opacity:1;fill-rule:nonzero;stroke:#000000;stroke-width:4.41176462;stroke-linecap:round;stroke-linejoin:round;stroke-miterlimit:4;stroke-opacity:1"/>
    <path d="M 335.375,90.5 C 337.35561,100.73246 338.40625,111.28543 338.40625,122.09375 C 338.40625,125.82364 338.27446,129.51884 338.03125,133.1875 C 334.35866,133.00469 330.45294,133.20654 326.28125,133.8125 C 291.06581,141.31115 306.10794,185.47656 296.9375,231.6875 C 266.59517,266.01619 222.22807,287.65625 172.84375,287.65625 C 142.47046,287.65625 114.01211,279.44899 89.53125,265.15625 C 65.852043,209.71366 97.607454,149.49163 55.875,139.09375 C 9.76453,130.76839 -8.0954791,173.55 21.71875,237.65625 C 38.179726,273.05048 65.441652,290.43601 85.5,297.1875 C 113.86337,319.98787 149.89183,333.625 189.09375,333.625 C 235.04329,333.625 276.65094,314.88556 306.65625,284.625 C 324.10978,275.90753 343.51779,260.03004 357,233.46875 C 382.2124,183.79785 377.38473,146.39033 351.53125,136.03125 C 348.36139,119.89524 342.86527,104.58934 335.375,90.5 z" transform="translate(162.17883,366.20177)" id="path3211" style="fill:#000000;fill-opacity:0.31372549;fill-rule:evenodd;stroke:none;stroke-width:5;stroke-linecap:butt;stroke-linejoin:miter;stroke-miterlimit:4;stroke-dasharray:none;stroke-opacity:1"/>
    <path d="M 217.9154,497.24676 C 266.0266,514.54679 203.75197,591.38947 255.73454,658.43855 C 265.34292,670.83181 197.86658,660.52932 174.01176,591.8535 C 150.81345,525.06774 172.8794,484.31442 217.9154,497.24676 z" id="path3169" style="fill:#c7d9b3;fill-opacity:1;fill-rule:evenodd;stroke:#000000;stroke-width:5;stroke-linecap:butt;stroke-linejoin:miter;stroke-miterlimit:4;stroke-dasharray:none;stroke-opacity:1"/>
    <path d="M 484.35799,497.24676 C 436.24679,514.54679 498.52142,591.38947 446.53885,658.43855 C 436.93047,670.83181 504.40681,660.52932 528.26163,591.8535 C 551.45994,525.06774 529.39399,484.31442 484.35799,497.24676 z" id="path3800" style="fill:#c7d9b3;fill-opacity:1;fill-rule:evenodd;stroke:#000000;stroke-width:5;stroke-linecap:butt;stroke-linejoin:miter;stroke-miterlimit:4;stroke-dasharray:none;stroke-opacity:1"/>
    <path d="M 466.68279,488.19932 C 480.07147,483.5903 493.90383,495.78316 496.54797,502.37925 C 483.03569,498.92696 476.82834,497.95345 473.32959,500.99853 C 474.83633,504.36997 490.73783,507.74044 495.66692,529.86968 C 483.23815,521.25307 473.36338,511.29411 469.39451,515.38656 C 472.27609,520.42038 475.59402,529.88395 473.35808,539.26732 C 466.21659,529.84289 458.91935,519.88888 452.21656,519.6195" id="path2413" style="fill:#c7d9b3;fill-opacity:1;fill-rule:evenodd;stroke:#000000;stroke-width:5;stroke-linecap:round;stroke-linejoin:round;stroke-miterlimit:4;stroke-dasharray:none;stroke-opacity:1"/>
    <path d="M 305.32208,406.46578 C 274.08762,406.46578 248.71874,435.79717 248.71874,471.93749 C 248.71874,508.07779 274.08762,537.4092 305.32208,537.4092 C 323.67773,537.4092 339.96647,527.2683 350.30684,511.57974 C 360.6465,527.27969 376.97072,537.4092 395.33416,537.4092 C 426.56862,537.4092 451.93748,508.07778 451.93749,471.93749 C 451.93749,435.79719 426.56862,406.46579 395.33416,406.46578 C 376.97286,406.46578 360.64669,416.59842 350.30684,432.29525 C 339.96627,416.61007 323.6754,406.46579 305.32208,406.46578 z" id="path2387" style="opacity:1;fill:#ffffff;fill-opacity:1;fill-rule:nonzero;stroke:#000000;stroke-width:5;stroke-linecap:round;stroke-linejoin:miter;stroke-miterlimit:4;stroke-dasharray:none;stroke-opacity:1"/>
    <path d="M 352.02155,517.37473 C 342.73356,517.37473 332.63792,527.70198 333.04174,534.22444 C 333.44557,540.74691 349.5986,567.92385 353.23302,567.92385 C 356.86745,567.92385 371.00135,541.29044 370.59753,533.6809 C 370.1937,526.07135 358.07893,516.83118 352.02155,517.37473 z" id="path3407" style="fill:#000000;fill-opacity:0.31372549;fill-rule:evenodd;stroke:none;stroke-width:5;stroke-linecap:butt;stroke-linejoin:miter;stroke-miterlimit:4;stroke-dasharray:none;stroke-opacity:1"/>
    <path d="M 349.90023,506.76588 C 340.61224,506.76588 330.5166,516.07208 330.92042,521.94967 C 331.32425,527.82727 347.47728,552.31726 351.1117,552.31726 C 354.74613,552.31726 368.88003,528.31707 368.47621,521.45987 C 368.07238,514.60267 355.95761,506.27607 349.90023,506.76588 z" id="path2391" style="fill:url(#linearGradient3211);fill-opacity:1;fill-rule:evenodd;stroke:#000000;stroke-width:5;stroke-linecap:butt;stroke-linejoin:miter;stroke-miterlimit:4;stroke-dasharray:none;stroke-opacity:1"/>
    <path d="M 340.57116,487.36658 A 10.387106,10.387106 0 1 1 319.79695,487.36658 A 10.387106,10.387106 0 1 1 340.57116,487.36658 z" transform="matrix(1.5776393,0,0,1.5776393,-190.5674,-292.52206)" id="path2411" style="opacity:1;fill:#000000;fill-opacity:1;fill-rule:nonzero;stroke:#000000;stroke-width:3.16929245;stroke-linecap:round;stroke-linejoin:miter;stroke-miterlimit:4;stroke-dasharray:none;stroke-opacity:1"/>
    <path d="M 235.32229,488.19932 C 221.93361,483.5903 208.10125,495.78316 205.45711,502.37925 C 218.96939,498.92696 225.17674,497.95345 228.67549,500.99853 C 227.16875,504.36997 211.26725,507.74044 206.33816,529.86968 C 218.76693,521.25307 228.6417,511.29411 232.61057,515.38656 C 229.72899,520.42038 226.41106,529.88395 228.647,539.26732 C 235.78849,529.84289 243.08573,519.88888 249.78852,519.6195" id="path3193" style="fill:#c7d9b3;fill-opacity:1;fill-rule:evenodd;stroke:#000000;stroke-width:5;stroke-linecap:round;stroke-linejoin:round;stroke-miterlimit:4;stroke-dasharray:none;stroke-opacity:1"/>
    <path d="M 364.14937,417.48451 C 377.42529,385.32476 399.81496,380.97129 399.81496,380.97129 C 399.81496,380.97129 387.36166,397.7466 398.64099,393.08004 C 416.10629,385.85418 471.63774,408.49835 471.63774,408.49835 C 471.63774,408.49835 398.06329,391.37233 364.14937,417.48451 z" id="path3283" style="fill:#ffffff;fill-opacity:1;fill-rule:evenodd;stroke:#000000;stroke-width:5;stroke-linecap:butt;stroke-linejoin:round;stroke-miterlimit:4;stroke-dasharray:none;stroke-opacity:1"/>
    <path d="M 333.70826,414.48452 C 320.43234,382.32476 298.04267,377.97129 298.04267,377.97129 C 298.04267,377.97129 310.49598,394.74661 299.21665,390.08004 C 281.75134,382.85418 226.2199,405.49835 226.2199,405.49835 C 226.2199,405.49835 299.79434,388.37233 333.70826,414.48452 z" id="path3285" style="fill:#ffffff;fill-opacity:1;fill-rule:evenodd;stroke:#000000;stroke-width:5;stroke-linecap:butt;stroke-linejoin:round;stroke-miterlimit:4;stroke-dasharray:none;stroke-opacity:1"/>
    <path d="M 340.57116,487.36658 A 10.387106,10.387106 0 1 1 319.79695,487.36658 A 10.387106,10.387106 0 1 1 340.57116,487.36658 z" transform="matrix(1.5776393,0,0,1.5776393,-149.0674,-292.52206)" id="path3301" style="opacity:1;fill:#000000;fill-opacity:1;fill-rule:nonzero;stroke:#000000;stroke-width:3.16929245;stroke-linecap:round;stroke-linejoin:miter;stroke-miterlimit:4;stroke-dasharray:none;stroke-opacity:1"/>
    <path d="M 209.5,105.42596 A 5.25,5.25 0 1 1 199,105.42596 A 5.25,5.25 0 1 1 209.5,105.42596 z" transform="matrix(0.8095238,0,0,0.8095238,159.08359,385.2829)" id="path3341" style="opacity:1;fill:#ffffff;fill-opacity:1;fill-rule:nonzero;stroke:none;stroke-width:5;stroke-linecap:butt;stroke-linejoin:round;stroke-miterlimit:4;stroke-dasharray:none;stroke-opacity:1"/>
    <path d="M 209.5,105.42596 A 5.25,5.25 0 1 1 199,105.42596 A 5.25,5.25 0 1 1 209.5,105.42596 z" transform="matrix(0.8095238,0,0,0.8095238,200.58359,385.2829)" id="path3343" style="opacity:1;fill:#ffffff;fill-opacity:1;fill-rule:nonzero;stroke:none;stroke-width:5;stroke-linecap:butt;stroke-linejoin:round;stroke-miterlimit:4;stroke-dasharray:none;stroke-opacity:1"/>
    <path d="M 337.9375,128.65625 C 337.52489,128.65565 337.10587,128.67679 336.6875,128.6875 C 352.89958,141.75204 359.76083,171.98462 351.46875,214.03125 C 340.44567,269.926 297.89217,294.03924 283.75,295.3125 C 288.34211,301.83893 344.72088,287.18675 366.09375,225.65625 C 386.39228,167.21871 372.0145,128.70612 337.9375,128.65625 z" transform="translate(162.17883,366.20177)" id="path3200" style="fill:#000000;fill-opacity:0.31372549;fill-rule:evenodd;stroke:none;stroke-width:5;stroke-linecap:butt;stroke-linejoin:miter;stroke-miterlimit:4;stroke-dasharray:none;stroke-opacity:1"/>
    <path d="M 4.0625,160.84375 C 0.61071507,177.34956 2.7639661,199.5164 11.84375,225.65625 C 35.69857,294.33207 103.17088,304.64325 93.5625,292.25 C 89.453584,286.95016 86.042108,281.57547 83.25,276.1875 C 64.298498,271.64609 29.202204,251.81127 13.34375,206.15625 C 7.4641999,189.22958 4.4898572,173.9758 4.0625,160.84375 z M 75.34375,167.1875 C 74.460897,175.72357 73.487536,184.79939 73.0625,194.3125 C 74.055786,184.52187 75.141891,175.37137 75.34375,167.1875 z" transform="translate(162.17883,366.20177)" id="path3205" style="fill:#000000;fill-opacity:0.31372549;fill-rule:evenodd;stroke:none;stroke-width:5;stroke-linecap:butt;stroke-linejoin:miter;stroke-miterlimit:4;stroke-dasharray:none;stroke-opacity:1"/>
  </g>
</svg>